<svg xmlns="http://www.w3.org/2000/svg" version="1.1" xmlns:xlink="http://www.w3.org/1999/xlink" width="512" height="512" x="0" y="0" viewBox="0 0 512 512" style="enable-background:new 0 0 512 512" xml:space="preserve" class=""><rect width="512" height="512" rx="102.4" ry="102.4" fill="#ffffff" shape="rounded"></rect><g transform="matrix(0.7,0,0,0.7,76.80000858291328,76.79984436035159)"><path d="M501.333 192c-20.204 0-38.681 1.315-55.967 3.691-4.755-35.697-16.578-70.978-35.97-104.983-2.521-4.427-7.896-6.469-12.646-4.823-28.988 9.66-55.59 23.268-79.546 40.105-14.875-21.415-32.839-41.576-54.371-59.522a10.691 10.691 0 0 0-13.667 0c-21.533 17.947-39.496 38.107-54.371 59.522-23.956-16.839-50.557-30.445-79.546-40.105-4.792-1.635-10.125.406-12.646 4.823C83.21 124.72 71.387 159.996 66.632 195.69 49.346 193.314 30.87 192 10.667 192A10.66 10.66 0 0 0 0 202.667c0 74.771 22.25 133.365 68.021 179.135C111.958 425.729 175.208 448 256 448s144.042-22.271 187.979-66.198C489.75 336.031 512 277.438 512 202.667A10.66 10.66 0 0 0 501.333 192zm-106.187-82.958c15.689 29.421 25.298 59.716 29.26 90.267-24.56 5.158-46.309 13.059-65.699 24.089-5.042-27.509-15.217-54.279-29.965-79.513a282.602 282.602 0 0 1 66.404-34.843zm-278.292 0a282.711 282.711 0 0 1 66.404 34.842c-14.747 25.234-24.922 52.005-29.964 79.514-19.393-11.03-41.139-18.934-65.702-24.091 3.961-30.543 13.571-60.84 29.262-90.265zm-33.75 257.677c-39.938-39.948-59.667-88.854-61.604-153.26 54.1 1.217 95.263 11.897 128.544 32.982-.762 9.69-.919 19.427-.398 29.174 3.117 58.249 29.068 110.185 73.453 149.494-59.177-5.192-106.258-24.662-139.995-58.39zM256 424.385c-51.708-36.781-81.833-89.76-85.063-149.917C167.354 207.083 198.25 139.844 256 88.729c57.75 51.115 88.646 118.354 85.063 185.74-3.23 60.156-33.355 113.135-85.063 149.916zm172.896-57.666c-33.737 33.728-80.818 53.198-139.995 58.389 44.385-39.309 70.336-91.245 73.453-149.494.521-9.747.363-19.484-.398-29.174 33.281-21.085 74.444-31.764 128.544-32.982-1.937 64.407-21.667 113.313-61.604 153.261z" fill="#000000" opacity="1" data-original="#000000"></path></g></svg>