<svg version="1.1" xmlns="http://www.w3.org/2000/svg" xmlns:xlink="http://www.w3.org/1999/xlink" x="0px" y="0px" viewBox="0 0 512 512" style="enable-background:new 0 0 512 512;" xml:space="preserve">
<g>
	<g>
		<path d="M501.333,192c-20.204,0-38.681,1.315-55.967,3.691c-4.755-35.697-16.578-70.978-35.97-104.983
			c-2.521-4.427-7.896-6.469-12.646-4.823c-28.988,9.66-55.59,23.268-79.546,40.105c-14.875-21.415-32.839-41.576-54.371-59.522
			c-3.958-3.292-9.708-3.292-13.667,0c-21.533,17.947-39.496,38.107-54.371,59.522c-23.956-16.839-50.557-30.445-79.546-40.105
			c-4.792-1.635-10.125,0.406-12.646,4.823C83.21,124.72,71.387,159.996,66.632,195.69C49.346,193.314,30.87,192,10.667,192
			C4.771,192,0,196.771,0,202.667c0,74.771,22.25,133.365,68.021,179.135C111.958,425.729,175.208,448,256,448
			s144.042-22.271,187.979-66.198C489.75,336.031,512,277.438,512,202.667C512,196.771,507.229,192,501.333,192z M395.146,109.042
			c15.689,29.421,25.298,59.716,29.26,90.267c-24.56,5.158-46.309,13.059-65.699,24.089c-5.042-27.509-15.217-54.279-29.965-79.513
			C348.862,129.639,371.052,117.85,395.146,109.042z M116.854,109.042c24.094,8.809,46.284,20.598,66.404,34.842
			c-14.747,25.234-24.922,52.005-29.964,79.514c-19.393-11.03-41.139-18.934-65.702-24.091
			C91.553,168.764,101.163,138.467,116.854,109.042z M83.104,366.719c-39.938-39.948-59.667-88.854-61.604-153.26
			c54.1,1.217,95.263,11.897,128.544,32.982c-0.762,9.69-0.919,19.427-0.398,29.174c3.117,58.249,29.068,110.185,73.453,149.494
			C163.922,419.917,116.841,400.447,83.104,366.719z M256,424.385c-51.708-36.781-81.833-89.76-85.063-149.917
			C167.354,207.083,198.25,139.844,256,88.729c57.75,51.115,88.646,118.354,85.063,185.74
			C337.833,334.625,307.708,387.604,256,424.385z M428.896,366.719c-33.737,33.728-80.818,53.198-139.995,58.389
			c44.385-39.309,70.336-91.245,73.453-149.494c0.521-9.747,0.363-19.484-0.398-29.174c33.281-21.085,74.444-31.764,128.544-32.982
			C488.563,277.865,468.833,326.771,428.896,366.719z"></path>
	</g>
  </g>
</svg>

